General
      Complete name : The.Aviator.2004.BRRip.H264.AAC.5.1ch.Gopo.mp4
      Format : MPEG-4
      Format profile : Base Media
      Codec ID : isom
      File size : 2.76 GiB
      Duration : 2h 50mn
      Overall bit rate : 2 325 Kbps
      Encoded date : UTC 2010-01-18 11:30:23
      Tagged date : UTC 2010-01-18 11:30:23
   Video #1
      ID : 1
      Format : AVC
      Format/Info : Advanced Video Codec
      Format profile : High@L4.1
      Format settings, CABAC : Yes
      Format settings, ReFrames : 5 frames
      Codec ID : avc1
      Codec ID/Info : Advanced Video Coding
      Duration : 2h 50mn
      Bit rate mode : Variable
      Bit rate : 2 022 Kbps
      Maximum bit rate : 17.2 Mbps
      Width : 1 280 pixels
      Height : 544 pixels
      Display aspect ratio : 2.35:1
      Frame rate mode : Constant
      Frame rate : 23.976 fps
      Resolution : 24 bits
      Colorimetry : 4:2:0
      Scan type : Progressive
      Bits/(Pixel*Frame) : 0.121
      Stream size : 2.40 GiB (87%)
      Writing library : x264 core 80 r1376M 3feaec2
      Encoding settings : cabac=1 / ref=5 / deblock=1:0:0 / analyse=0x3:0x113 / me=umh / subme=7 / psy=1 / psy_rd=1.0:0.0 / mixed_ref=1 / me_range=16 / chroma_me=1 / trellis=2 / 8x8dct=1 / cqm=0 / deadzone=21,11 / fast_pskip=1 / chroma_qp_offset=-2 / threads=1 / sliced_threads=0 / nr=0 / decimate=1 / mbaff=0 / constrained_intra=0 / bframes=3 / b_pyramid=0 / b_adapt=2 / b_bias=0 / direct=3 / wpredb=1 / wpredp=2 / keyint=250 / keyint_min=25 / scenecut=40 / rc_lookahead=30 / rc=2pass / mbtree=1 / bitrate=2022 / ratetol=1.0 / qcomp=0.50 / qpmin=10 / qpmax=51 / qpstep=4 / cplxblur=20.0 / qblur=0.5 / vbv_maxrate=24000 / vbv_bufsize=24000 / ip_ratio=1.10 / aq=1:1.00
      Encoded date : UTC 2010-01-17 02:54:04
      Tagged date : UTC 2010-01-18 11:33:44
   Audio #2
      ID : 2
      Format : AAC
      Format/Info : Advanced Audio Codec
      Format version : Version 4
      Format profile : LC
      Format settings, SBR : No
      Codec ID : 40
      Duration : 2h 50mn
      Bit rate mode : Variable
      Bit rate : 299 Kbps
      Maximum bit rate : 426 Kbps
      Channel(s) : 6 channels
      Channel positions : Front: L C R, Rear: L R, LFE
      Sampling rate : 48.0 KHz
      Resolution : 16 bits
      Stream size : 364 MiB (13%)
      Encoded date : UTC 2010-01-18 11:33:23
      Tagged date : UTC 2010-01-18 11:33:44
	Sample : YES
	Subtitle : English,Romanian

PLOT

Phenomenal public success contrasts with private behaviors close to madness: Howard Hughes from the late 1920s to the late 1940s, from "Hells Angels" (spending a fortune on details) through the only flight of the Hercules, a huge, money-losing transport plane. Along the way, the public Hughes sees the big picture - in movies and in aviation, building TWA and leading it through a fight with Pan Am and the US Senate. In private, phobias and compulsions threaten him with self-imposed solitary confinement. How long can his imagination, drive, and the sympathies of Katharine Hepburn, Ava Gardner, and the men who work for him stave off these internal disorders?
Director: Martin Scorsese
CASTING 
     
      Leonardo DiCaprio	... 	Howard Hughes
	Cate Blanchett	... 	Katharine Hepburn
	Kate Beckinsale	... 	Ava Gardner
	John C. Reilly	... 	Noah Dietrich
	Alec Baldwin	... 	Juan Trippe
	Alan Alda	... 	Senator Ralph Owen Brewster
	Ian Holm	... 	Professor Fitz
	Danny Huston	... 	Jack Frye
	Gwen Stefani	... 	Jean Harlow
	Jude Law	... 	Errol Flynn
	Adam Scott	... 	Johnny Meyer
	Matt Ross	... 	Glenn Odekirk
	Kelli Garner	... 	Faith Domergue
	Frances Conroy	... 	Mrs. Hepburn
	Brent Spiner	... 	Robert Gross

SOURCE: The.Aviator.2004.720p.BluRay.x264-ESiR.mkv

Notes: For best performance I suggest you to use KMPlayer(find it with google) for playback
I haven't tested the movies on a PS3 or Xbox or other devices than PC because I don't own one of them but feel free to test them if you have the oportunity.
